<svg version="1.1" viewBox="0.0 0.0 498.12335958005247 758.01312335958" fill="none" stroke="none" stroke-linecap="square" stroke-miterlimit="10" xmlns:xlink="http://www.w3.org/1999/xlink" xmlns="http://www.w3.org/2000/svg"><clipPath id="p.0"><path d="m0 0l498.12335 0l0 758.0131l-498.12335 0l0 -758.0131z" clip-rule="nonzero"/></clipPath><g clip-path="url(#p.0)"><path fill="#000000" fill-opacity="0.0" d="m0 0l498.12335 0l0 758.0131l-498.12335 0z" fill-rule="evenodd"/><path fill="#dac1b6" d="m0 0l498.11023 0l0 758.01575l-498.11023 0z" fill-rule="evenodd"/><path stroke="#dac1b6" stroke-width="1.0" stroke-linejoin="round" stroke-linecap="butt" d="m0 0l498.11023 0l0 758.01575l-498.11023 0z" fill-rule="evenodd"/><path fill="#9e939c" d="m336.57007 635.99884l0 0c0.7305908 -15.87561 14.192474 -28.150208 30.067963 -27.416016l139.32867 6.4436035c7.6236877 0.35253906 14.795746 3.7192383 19.938385 9.359314c5.1427 5.6401367 7.834717 13.091736 7.4838867 20.715454l-5.291321 114.98163c-0.7305908 15.875671 -14.192444 28.150208 -30.067963 27.416016l-139.32867 -6.4435425c-15.875488 -0.7342529 -28.152863 -14.199158 -27.422272 -30.07483z" fill-rule="evenodd"/><path stroke="#9e939c" stroke-width="1.0" stroke-linejoin="round" stroke-linecap="butt" d="m336.57007 635.99884l0 0c0.7305908 -15.87561 14.192474 -28.150208 30.067963 -27.416016l139.32867 6.4436035c7.6236877 0.35253906 14.795746 3.7192383 19.938385 9.359314c5.1427 5.6401367 7.834717 13.091736 7.4838867 20.715454l-5.291321 114.98163c-0.7305908 15.875671 -14.192444 28.150208 -30.067963 27.416016l-139.32867 -6.4435425c-15.875488 -0.7342529 -28.152863 -14.199158 -27.422272 -30.07483z" fill-rule="evenodd"/><path fill="#9e939c" d="m429.7602 439.32568l0 0c9.161926 -15.652527 29.275574 -20.910034 44.92508 -11.742981l113.34384 66.39371l0 0c7.5151367 4.4021606 12.974731 11.610016 15.177673 20.037872c2.203003 8.427856 0.9688721 17.385315 -3.4308472 24.901917l-73.65637 125.836914c-9.161926 15.652527 -29.275604 20.910034 -44.92511 11.742981l-113.34384 -66.39374c-15.649506 -9.167053 -20.908752 -29.287292 -11.746826 -44.93982z" fill-rule="evenodd"/><path stroke="#9e939c" stroke-width="1.0" stroke-linejoin="round" stroke-linecap="butt" d="m429.7602 439.32568l0 0c9.161926 -15.652527 29.275574 -20.910034 44.92508 -11.742981l113.34384 66.39371l0 0c7.5151367 4.4021606 12.974731 11.610016 15.177673 20.037872c2.203003 8.427856 0.9688721 17.385315 -3.4308472 24.901917l-73.65637 125.836914c-9.161926 15.652527 -29.275604 20.910034 -44.92511 11.742981l-113.34384 -66.39374c-15.649506 -9.167053 -20.908752 -29.287292 -11.746826 -44.93982z" fill-rule="evenodd"/><path fill="#000000" fill-opacity="0.0" d="m-4.937008 133.3307c23.174746 -5.7967606 47.295918 -24.970062 53.08399 -48.14698c4.6873016 -18.769135 -19.742094 -33.313583 -28.3937 -50.616795c-4.702882 -9.405764 9.74172 -18.746262 16.04987 -27.160105c3.7679367 -5.0256944 4.2582245 -13.236 9.874016 -16.04987" fill-rule="evenodd"/><path stroke="#9e939c" stroke-width="24.0" stroke-linejoin="round" stroke-linecap="butt" d="m-4.937008 133.3307c23.174746 -5.7967606 47.295918 -24.970062 53.08399 -48.14698c4.6873016 -18.769135 -19.742094 -33.313583 -28.3937 -50.616795c-4.702882 -9.405764 9.74172 -18.746262 16.04987 -27.160105c3.7679367 -5.0256944 4.2582245 -13.236 9.874016 -16.04987" fill-rule="evenodd"/><path fill="#9e939c" d="m-9.196953 -15.727251l40.220474 6.4251966l-12.535433 78.58268l-40.220474 -6.4251976z" fill-rule="evenodd"/><path stroke="#9e939c" stroke-width="1.0" stroke-linejoin="round" stroke-linecap="butt" d="m-9.196953 -15.727251l40.220474 6.4251966l-12.535433 78.58268l-40.220474 -6.4251976z" fill-rule="evenodd"/><path fill="#9e939c" d="m-8.773675 42.56691l58.992126 22.771652l-26.519686 68.59842l-58.992126 -22.771645z" fill-rule="evenodd"/><path stroke="#9e939c" stroke-width="1.0" stroke-linejoin="round" stroke-linecap="butt" d="m-8.773675 42.56691l58.992126 22.771652l-26.519686 68.59842l-58.992126 -22.771645z" fill-rule="evenodd"/><path fill="#000000" fill-opacity="0.0" d="m502.46194 430.3176c-19.498169 0 -39.76834 0.55682373 -58.02362 7.4067993c-34.729065 13.031494 -59.873688 49.993744 -71.60367 85.18375c-6.4282227 19.284607 -19.34491 36.666992 -22.223114 56.79004c-2.3917847 16.722168 4.183258 35.089783 -2.469818 50.61676c-12.125183 28.297852 -32.160065 54.363525 -56.787384 72.83728c-10.332092 7.7504272 -25.469116 7.0684814 -35.80316 14.816284c-19.55899 14.6640625 -37.392395 32.274963 -59.257217 43.207336" fill-rule="evenodd"/><path stroke="#9e939c" stroke-width="24.0" stroke-linejoin="round" stroke-linecap="butt" d="m502.46194 430.3176c-19.498169 0 -39.76834 0.55682373 -58.02362 7.4067993c-34.729065 13.031494 -59.873688 49.993744 -71.60367 85.18375c-6.4282227 19.284607 -19.34491 36.666992 -22.223114 56.79004c-2.3917847 16.722168 4.183258 35.089783 -2.469818 50.61676c-12.125183 28.297852 -32.160065 54.363525 -56.787384 72.83728c-10.332092 7.7504272 -25.469116 7.0684814 -35.80316 14.816284c-19.55899 14.6640625 -37.392395 32.274963 -59.257217 43.207336" fill-rule="evenodd"/><path fill="#9e939c" d="m317.49966 788.8295l-115.71654 -39.370056l161.85826 -96.22046z" fill-rule="evenodd"/><path stroke="#9e939c" stroke-width="1.0" stroke-linejoin="round" stroke-linecap="butt" d="m317.49966 788.8295l-115.71654 -39.370056l161.85826 -96.22046z" fill-rule="evenodd"/><path fill="#9e939c" d="m314.8084 755.6116l0 0c0 -11.245789 12.04248 -20.362244 26.897614 -20.362244l0 0c14.855164 0 26.897644 9.116455 26.897644 20.362244l0 0c0 11.245728 -12.04248 20.362183 -26.897644 20.362183l0 0c-14.855133 0 -26.897614 -9.116455 -26.897614 -20.362183z" fill-rule="evenodd"/><path stroke="#9e939c" stroke-width="1.0" stroke-linejoin="round" stroke-linecap="butt" d="m314.8084 755.6116l0 0c0 -11.245789 12.04248 -20.362244 26.897614 -20.362244l0 0c14.855164 0 26.897644 9.116455 26.897644 20.362244l0 0c0 11.245728 -12.04248 20.362183 -26.897644 20.362183l0 0c-14.855133 0 -26.897614 -9.116455 -26.897614 -20.362183z" fill-rule="evenodd"/><path fill="#000000" fill-opacity="0.0" d="m0 520.39105c24.59821 6.1446533 52.309044 20.903625 61.727036 44.443604c8.490189 21.220947 6.712425 52.74762 27.160103 62.960632c17.443481 8.712463 39.106346 2.6851196 58.02363 7.409424c15.4118805 3.848877 30.610275 8.555115 45.67978 13.580078c30.641922 10.21759 42.061462 49.75128 67.90027 69.13385c22.84729 17.138489 46.282196 33.48413 69.13385 50.61682c4.861389 3.6447144 13.328003 3.208191 16.049866 8.640381" fill-rule="evenodd"/><path stroke="#3e2337" stroke-width="24.0" stroke-linejoin="round" stroke-linecap="butt" d="m0 520.39105c24.59821 6.1446533 52.309044 20.903625 61.727036 44.443604c8.490189 21.220947 6.712425 52.74762 27.160103 62.960632c17.443481 8.712463 39.106346 2.6851196 58.02363 7.409424c15.4118805 3.848877 30.610275 8.555115 45.67978 13.580078c30.641922 10.21759 42.061462 49.75128 67.90027 69.13385c22.84729 17.138489 46.282196 33.48413 69.13385 50.61682c4.861389 3.6447144 13.328003 3.208191 16.049866 8.640381" fill-rule="evenodd"/><path fill="#3e2337" d="m250.62106 729.9232l0 25.360046l0 0c0 24.457642 -9.715759 47.913513 -27.009918 65.2077c-17.294159 17.294128 -40.75006 27.009888 -65.20769 27.009888l-163.34145 0c-9.6559525E-4 0 -0.001748085 -7.9345703E-4 -0.001748085 -0.0017700195l0.001748085 -209.79352l0 0c0 -9.765625E-4 7.829666E-4 -0.0017089844 0.0017485619 -0.0017089844l163.3397 0.0017089844l0 0c50.930374 0 92.217606 41.28723 92.217606 92.21765z" fill-rule="evenodd"/><path stroke="#3e2337" stroke-width="1.0" stroke-linejoin="round" stroke-linecap="butt" d="m250.62106 729.9232l0 25.360046l0 0c0 24.457642 -9.715759 47.913513 -27.009918 65.2077c-17.294159 17.294128 -40.75006 27.009888 -65.20769 27.009888l-163.34145 0c-9.6559525E-4 0 -0.001748085 -7.9345703E-4 -0.001748085 -0.0017700195l0.001748085 -209.79352l0 0c0 -9.765625E-4 7.829666E-4 -0.0017089844 0.0017485619 -0.0017089844l163.3397 0.0017089844l0 0c50.930374 0 92.217606 41.28723 92.217606 92.21765z" fill-rule="evenodd"/><path fill="#3e2337" d="m257.3466 801.0103l-22.834656 -92.566895l100.6929 73.35431z" fill-rule="evenodd"/><path stroke="#3e2337" stroke-width="1.0" stroke-linejoin="round" stroke-linecap="butt" d="m257.3466 801.0103l-22.834656 -92.566895l100.6929 73.35431z" fill-rule="evenodd"/><path fill="#3e2337" d="m-33.7573 528.4574l25.337208 1.0926514l0 0c24.4356 1.053772 47.45245 11.771484 63.987106 29.795227c16.534657 18.023804 25.232685 41.87726 24.180614 66.31293l-7.025299 163.1723c-4.5776367E-5 9.1552734E-4 -8.621216E-4 0.0017089844 -0.0018234253 0.0016479492l-209.60448 -9.041016l0 0c-9.613037E-4 -6.1035156E-5 -0.0017089844 -8.544922E-4 -0.0016784668 -0.0018310547l7.0269775 -163.17047l0 0c2.1908188 -50.884644 45.216866 -90.355896 96.10137 -88.16144z" fill-rule="evenodd"/><path stroke="#3e2337" stroke-width="1.0" stroke-linejoin="round" stroke-linecap="butt" d="m-33.7573 528.4574l25.337208 1.0926514l0 0c24.4356 1.053772 47.45245 11.771484 63.987106 29.795227c16.534657 18.023804 25.232685 41.87726 24.180614 66.31293l-7.025299 163.1723c-4.5776367E-5 9.1552734E-4 -8.621216E-4 0.0017089844 -0.0018234253 0.0016479492l-209.60448 -9.041016l0 0c-9.613037E-4 -6.1035156E-5 -0.0017089844 -8.544922E-4 -0.0016784668 -0.0018310547l7.0269775 -163.17047l0 0c2.1908188 -50.884644 45.216866 -90.355896 96.10137 -88.16144z" fill-rule="evenodd"/><path fill="#3e2337" d="m6.615082 509.84686l-7.6850395 18.393677l-1.4488189 -19.905487z" fill-rule="evenodd"/><path stroke="#3e2337" stroke-width="1.0" stroke-linejoin="round" stroke-linecap="butt" d="m6.615082 509.84686l-7.6850395 18.393677l-1.4488189 -19.905487z" fill-rule="evenodd"/><path fill="#3e2337" d="m87.58096 632.32715l-7.6850433 18.393738l-1.4488144 -19.905518z" fill-rule="evenodd"/><path stroke="#3e2337" stroke-width="1.0" stroke-linejoin="round" stroke-linecap="butt" d="m87.58096 632.32715l-7.6850433 18.393738l-1.4488144 -19.905518z" fill-rule="evenodd"/><path fill="#000000" fill-opacity="0.0" d="m483.50204 -3.71916c0 15.166835 -20.475769 27.127695 -17.501312 42.0c2.1263733 10.631756 16.494629 14.32616 23.0 23.0c5.798645 7.7315216 6.857239 20.179268 15.501312 24.501312" fill-rule="evenodd"/><path stroke="#3e2337" stroke-width="1.0" stroke-linejoin="round" stroke-linecap="butt" d="m483.50204 -3.71916c0 15.166835 -20.475769 27.127695 -17.501312 42.0c2.1263733 10.631756 16.494629 14.32616 23.0 23.0c5.798645 7.7315216 6.857239 20.179268 15.501312 24.501312" fill-rule="evenodd"/><path fill="#000000" fill-opacity="0.0" d="m459.50076 -0.7191601c0 10.466879 1.2801208 22.626497 -5.0 31.0c-6.1588745 8.211832 -18.514404 15.9345455 -16.501312 25.999998c2.367279 11.8363495 18.872955 15.27803 29.501312 21.0c17.326538 9.328072 34.186615 21.262589 46.00003 37.0" fill-rule="evenodd"/><path stroke="#3e2337" stroke-width="1.0" stroke-linejoin="round" stroke-linecap="butt" d="m459.50076 -0.7191601c0 10.466879 1.2801208 22.626497 -5.0 31.0c-6.1588745 8.211832 -18.514404 15.9345455 -16.501312 25.999998c2.367279 11.8363495 18.872955 15.27803 29.501312 21.0c17.326538 9.328072 34.186615 21.262589 46.00003 37.0" fill-rule="evenodd"/><path fill="#000000" fill-opacity="0.0" d="m448.50192 -2.2178478c0 30.179152 -47.259888 55.92196 -35.0 83.49869c9.239197 20.782158 35.421234 30.31678 57.0 37.501312c13.904846 4.629547 31.637146 2.6371384 42.00003 13.0" fill-rule="evenodd"/><path stroke="#3e2337" stroke-width="1.0" stroke-linejoin="round" stroke-linecap="butt" d="m448.50192 -2.2178478c0 30.179152 -47.259888 55.92196 -35.0 83.49869c9.239197 20.782158 35.421234 30.31678 57.0 37.501312c13.904846 4.629547 31.637146 2.6371384 42.00003 13.0" fill-rule="evenodd"/></g></svg>