<svg version="1.1" viewBox="0.0 0.0 498.12335958005247 758.01312335958" fill="none" stroke="none" stroke-linecap="square" stroke-miterlimit="10" xmlns:xlink="http://www.w3.org/1999/xlink" xmlns="http://www.w3.org/2000/svg"><clipPath id="p.0"><path d="m0 0l498.12335 0l0 758.0131l-498.12335 0l0 -758.0131z" clip-rule="nonzero"/></clipPath><g clip-path="url(#p.0)"><path fill="#000000" fill-opacity="0.0" d="m0 0l498.12335 0l0 758.0131l-498.12335 0z" fill-rule="evenodd"/><path fill="#dac1b6" d="m0 0l498.11023 0l0 758.01575l-498.11023 0z" fill-rule="evenodd"/><path stroke="#dac1b6" stroke-width="1.0" stroke-linejoin="round" stroke-linecap="butt" d="m0 0l498.11023 0l0 758.01575l-498.11023 0z" fill-rule="evenodd"/><path fill="#000000" fill-opacity="0.0" d="m-6.1732283 465.42633c36.683308 0 73.561356 -0.99005127 109.87664 -6.173218c37.295456 -5.323059 75.18408 -18.546326 112.34383 -12.346466c23.367142 3.8986816 44.393555 18.047272 67.90027 20.989502c26.937042 3.3716125 52.389587 14.431 79.0105 19.750671c23.684906 4.7329407 70.36746 -6.867096 70.36746 17.286072" fill-rule="evenodd"/><path stroke="#9e939c" stroke-width="24.0" stroke-linejoin="round" stroke-linecap="butt" d="m-6.1732283 465.42633c36.683308 0 73.561356 -0.99005127 109.87664 -6.173218c37.295456 -5.323059 75.18408 -18.546326 112.34383 -12.346466c23.367142 3.8986816 44.393555 18.047272 67.90027 20.989502c26.937042 3.3716125 52.389587 14.431 79.0105 19.750671c23.684906 4.7329407 70.36746 -6.867096 70.36746 17.286072" fill-rule="evenodd"/><path fill="#9e939c" d="m-7.406824 472.83203l339.49606 0l0 98.77167l-339.49606 0z" fill-rule="evenodd"/><path stroke="#9e939c" stroke-width="1.0" stroke-linejoin="round" stroke-linecap="butt" d="m-7.406824 472.83203l339.49606 0l0 98.77167l-339.49606 0z" fill-rule="evenodd"/><path fill="#9e939c" d="m85.18372 456.73227l176.53543 0l0 22.26773l-176.53543 0z" fill-rule="evenodd"/><path stroke="#9e939c" stroke-width="1.0" stroke-linejoin="round" stroke-linecap="butt" d="m85.18372 456.73227l176.53543 0l0 22.26773l-176.53543 0z" fill-rule="evenodd"/><path fill="#000000" fill-opacity="0.0" d="m56.790028 573.42255c39.88364 -33.22693 100.45804 -27.22998 151.84778 -34.566895c46.95067 -6.703186 89.7303 -34.89389 137.03673 -38.270355c33.04486 -2.358551 65.89029 15.216156 98.763794 11.1102295c22.60672 -2.823578 42.64804 -19.753265 65.43045 -19.753265" fill-rule="evenodd"/><path stroke="#bac8d3" stroke-width="24.0" stroke-linejoin="round" stroke-linecap="butt" d="m56.790028 573.42255c39.88364 -33.22693 100.45804 -27.22998 151.84778 -34.566895c46.95067 -6.703186 89.7303 -34.89389 137.03673 -38.270355c33.04486 -2.358551 65.89029 15.216156 98.763794 11.1102295c22.60672 -2.823578 42.64804 -19.753265 65.43045 -19.753265" fill-rule="evenodd"/><path fill="#bac8d3" d="m504.937 527.8478l0 248.0315l-283.937 0l0 -248.0315z" fill-rule="evenodd"/><path stroke="#bac8d3" stroke-width="1.0" stroke-linejoin="round" stroke-linecap="butt" d="m504.937 527.8478l0 248.0315l-283.937 0l0 -248.0315z" fill-rule="evenodd"/><path fill="#bac8d3" d="m287.6509 511.08398l217.25986 0l0 22.2677l-217.25986 0z" fill-rule="evenodd"/><path stroke="#bac8d3" stroke-width="1.0" stroke-linejoin="round" stroke-linecap="butt" d="m287.6509 511.08398l217.25986 0l0 22.2677l-217.25986 0z" fill-rule="evenodd"/><path fill="#bac8d3" d="m480.0 504.9265l41.984253 0l0 34.582703l-41.984253 0z" fill-rule="evenodd"/><path stroke="#bac8d3" stroke-width="1.0" stroke-linejoin="round" stroke-linecap="butt" d="m480.0 504.9265l41.984253 0l0 34.582703l-41.984253 0z" fill-rule="evenodd"/><path fill="#bac8d3" d="m60.357174 569.07733l171.65353 -41.228333l32.314972 134.45667l-171.65355 41.228394z" fill-rule="evenodd"/><path stroke="#bac8d3" stroke-width="1.0" stroke-linejoin="round" stroke-linecap="butt" d="m60.357174 569.07733l171.65353 -41.228333l32.314972 134.45667l-171.65355 41.228394z" fill-rule="evenodd"/><path fill="#000000" fill-opacity="0.0" d="m-8.643044 571.5958c49.81404 0 105.82466 3.4465942 145.67717 33.333313c22.116623 16.585999 31.795517 50.52069 58.02362 59.257202c18.613922 6.2002563 40.47426 1.1051025 58.02362 9.876648c22.768982 11.380493 41.78366 29.090271 62.963257 43.20996c8.72934 5.81958 19.999542 7.286682 28.393707 13.580078c5.206421 3.9034424 5.532776 12.7022705 11.112854 16.049866c10.257446 6.1535645 21.102753 11.3349 32.097107 16.047241c5.871582 2.5166626 15.662598 -0.7753906 18.51706 4.939636" fill-rule="evenodd"/><path stroke="#92a08c" stroke-width="24.0" stroke-linejoin="round" stroke-linecap="butt" d="m-8.643044 571.5958c49.81404 0 105.82466 3.4465942 145.67717 33.333313c22.116623 16.585999 31.795517 50.52069 58.02362 59.257202c18.613922 6.2002563 40.47426 1.1051025 58.02362 9.876648c22.768982 11.380493 41.78366 29.090271 62.963257 43.20996c8.72934 5.81958 19.999542 7.286682 28.393707 13.580078c5.206421 3.9034424 5.532776 12.7022705 11.112854 16.049866c10.257446 6.1535645 21.102753 11.3349 32.097107 16.047241c5.871582 2.5166626 15.662598 -0.7753906 18.51706 4.939636" fill-rule="evenodd"/><path fill="#92a08c" d="m106.1706 583.4383l0 192.44098l-123.49606 0l0 -192.44098z" fill-rule="evenodd"/><path stroke="#92a08c" stroke-width="1.0" stroke-linejoin="round" stroke-linecap="butt" d="m106.1706 583.4383l0 192.44098l-123.49606 0l0 -192.44098z" fill-rule="evenodd"/><path fill="#92a08c" d="m269.6719 796.3202l-192.44093 0l0 -123.49603l192.44093 0z" fill-rule="evenodd"/><path stroke="#92a08c" stroke-width="1.0" stroke-linejoin="round" stroke-linecap="butt" d="m269.6719 796.3202l-192.44093 0l0 -123.49603l192.44093 0z" fill-rule="evenodd"/><path fill="#92a08c" d="m103.05774 724.63257l0 -138.26776l156.78741 138.26776z" fill-rule="evenodd"/><path stroke="#92a08c" stroke-width="1.0" stroke-linejoin="round" stroke-linecap="butt" d="m103.05774 724.63257l0 -138.26776l156.78741 138.26776z" fill-rule="evenodd"/><path fill="#92a08c" d="m259.84515 803.70605l0 -138.26776l156.78738 138.26776z" fill-rule="evenodd"/><path stroke="#92a08c" stroke-width="1.0" stroke-linejoin="round" stroke-linecap="butt" d="m259.84515 803.70605l0 -138.26776l156.78738 138.26776z" fill-rule="evenodd"/></g></svg>